<?xml version="1.0" standalone="yes"?>
<svg xmlns="http://www.w3.org/2000/svg" width="256" height="256">
<path style="fill:#ffffff; stroke:none;" d="M0 0L0 222L1 222C4.83043 205.443 13.8828 189.75 16.6744 173C21.5631 143.667 17 109.768 17 80L17 31C17 25.5525 15.1753 15.9657 18.0278 11.1481C20.4121 7.12122 26.0338 8.00026 30 8L65 8L196 8L227 8C230.761 8.00169 235.73 7.3611 237.972 11.1481C240.825 15.9657 239 25.5525 239 31L239 80C239 109.768 234.437 143.668 239.326 173C242.117 189.75 251.17 205.443 255 222L256 222L256 0L0 0z"/>
<path style="fill:#ff0000; stroke:none;" d="M19.3179 9.02779C13.644 12.8139 17 34.6702 17 41L17 140C17 150.341 18.3757 161.792 16.6744 172C14.4394 185.41 7.96502 199.105 3.66667 212C1.0161 219.952 -4.20864 237.835 1.02778 245.682C3.62888 249.58 11.9889 248 16 248L58 248L201 248L239 248C243.065 248 250.148 249.331 253.682 246.972C258.773 243.575 256.424 225.145 254.96 220C250.436 204.107 242.043 188.303 239.326 172C237.572 161.478 239 149.66 239 139L239 45C239 36.6981 242.615 17.2762 237.972 10.3179C235.569 6.71594 228.691 8 225 8L189 8L65 8L33 8C29.1571 8 22.668 6.79228 19.3179 9.02779z"/>
<path style="fill:#ffffff; stroke:none;" d="M26 18L26 170L230 170L230 18L26 18z"/>
<path style="fill:#ff0000; stroke:none;" d="M34 25L34 163L222 163L222 25L34 25z"/>
<path style="fill:#ffffff; stroke:none;" d="M43 35L43 42L213 42L213 35L43 35M43 52L43 153L213 153L213 52L43 52z"/>
<path style="fill:#ff0000; stroke:none;" d="M59 103C59 112.955 54.9505 134.22 60.179 142.772C62.7344 146.951 68.8387 146 73 146L106 146C109.888 146 115.53 146.866 118.397 143.566C120.894 140.692 120 135.511 120 132L120 103C127.235 102.603 129.866 97.94 124.852 92C117.352 83.1145 108.244 75.2009 100 67.0008C97.2217 64.2371 93.4314 59.2574 89 59.662C84.607 60.0631 80.8777 65.1271 78 68C69.9656 76.021 58.6836 84.2953 52.7431 94C49.1422 99.8826 53.52 102.699 59 103M136 59L136 69L205 69L205 59L136 59z"/>
<path style="fill:#ffffff; stroke:none;" d="M89 71L68 93L111 93L89 71z"/>
<path style="fill:#ff0000; stroke:none;" d="M136 76L136 86L205 86L205 76L136 76M136 93L136 103L154 103L154 93L136 93M162 93L162 103L180 103L180 93L162 93M187 93L187 103L205 103L205 93L187 93z"/>
<path style="fill:#ffffff; stroke:none;" d="M69 103L69 136L76 136C76 129.807 74.0664 119.638 77.179 114.109C80.7265 107.807 98.4107 107.782 101.972 114.109C105.006 119.499 103 129.937 103 136L110 136L110 103L69 103z"/>
<path style="fill:#ff0000; stroke:none;" d="M136 110L136 137L163 137L163 110L136 110M170 110L170 137L205 137L205 110L170 110z"/>
<path style="fill:#ffffff; stroke:none;" d="M86 120L86 136L93 136L93 120L86 120M146 120L146 128L153 128L153 120L146 120M180 120L180 128L196 128L196 120L180 120M11 221L245 221L235.333 192L230.49 181.028L218 180L188 180L72 180L39 180L25.51 181.028L20.6667 192L11 221z"/>
<path style="fill:#ff0000; stroke:none;" d="M42 187L42 197L60 197L60 187L42 187M68 187L68 197L86 197L86 187L68 187M93 187L93 197L111 197L111 187L93 187M119 187L119 197L137 197L137 187L119 187M145 187L145 197L163 197L163 187L145 187M170 187L170 197L188 197L188 187L170 187M196 187L196 197L214 197L214 187L196 187M42 204L42 214L60 214L60 204L42 204M68 204L68 214L86 214L86 204L68 204M93 204L93 214L111 214L111 204L93 204M119 204L119 214L137 214L137 204L119 204M145 204L145 214L163 214L163 204L145 204M170 204L170 214L188 214L188 204L170 204M196 204L196 214L214 214L214 204L196 204z"/>
<path style="fill:#ffffff; stroke:none;" d="M9 231L9 238L247 238L247 231L9 231M0 246L0 256L256 256L256 246C240.049 252.759 214.255 248 197 248L65 248L23 248C15.3233 248 7.18829 249.046 0 246z"/>
</svg>
