<?xml version="1.0" standalone="yes"?>
<svg xmlns="http://www.w3.org/2000/svg" width="256" height="256">
<path style="fill:#ffffff; stroke:none;" d="M0 0L0 7L1 7L7 1L0 0z"/>
<path style="fill:#ff0000; stroke:none;" d="M7.01466 0.858032C0.0231323 3.76569 0.000414119 10.5596 0 17L0 57L0 200L0 236C0 241.218 -1.00083 247.494 2.57253 251.811C6.74768 256.855 13.1298 256 19 256L60 256L193 256L231 256C236.46 256 243.859 257.274 248.985 255.142C255.977 252.234 256 245.44 256 239L256 199L256 56L256 20C256 14.7824 257.001 8.50603 253.427 4.18904C249.252 -0.85498 242.87 0 237 0L196 0L63 0L25 0C19.5403 0 12.1415 -1.27411 7.01466 0.858032z"/>
<path style="fill:#ffffff; stroke:none;" d="M249 0L249 1L255 7L256 7L256 0L249 0M11.3179 10.0278C5.82483 13.6933 9 33.9278 9 40L9 129L9 213C9 220.676 5.71914 238.225 10.0278 244.682C12.5336 248.437 20.1462 247 24 247L63 247L196 247L231 247C234.843 247 241.332 248.208 244.682 245.972C250.175 242.307 247 222.072 247 216L247 127L247 43C247 35.3243 250.281 17.7747 245.972 11.3179C243.466 7.56273 235.854 9 232 9L193 9L60 9L25 9C21.1571 9 14.668 7.7923 11.3179 10.0278z"/>
<path style="fill:#ff0000; stroke:none;" d="M28.2284 25.7423C23.0463 28.163 22.7446 54.5378 26.6034 58.3966C29.1881 60.9813 34.6941 60 38 60C47.8052 60 64.8605 63.3223 73.8519 59.3966C78.968 57.1629 79.1905 30.3973 75.3966 26.6034C72.8119 24.0187 67.3059 25 64 25C54.3264 25 37.0203 21.6353 28.2284 25.7423M87.3179 26.0278C82.5592 29.2032 83.2405 49.7592 89.1088 51.5664C98.517 54.4636 112.165 52 122 52L194 52C202.182 52 222.173 55.6262 228.682 50.2577C233.09 46.6221 233.015 27.3196 226.891 25.4336C217.483 22.5364 203.835 25 194 25L122 25C113.698 25 94.2762 21.3845 87.3179 26.0278z"/>
<path style="fill:#ffffff; stroke:none;" d="M35 35L35 51L68 51L68 35L35 35M94 35L94 42L221 42L221 35L94 35z"/>
<path style="fill:#ff0000; stroke:none;" d="M88.1481 59.7423C82.5287 62.2843 82.9311 83.7304 89.0586 85.5664C98.5592 88.4129 112.093 86 122 86L194 86C202.309 86 221.634 89.5925 228.566 84.821C233.347 81.5308 232.869 61.2744 226.891 59.4336C217.758 56.6209 204.545 59 195 59L125 59C114.937 59 97.3428 55.5829 88.1481 59.7423M27.3179 69.0278C22.2949 72.3796 25 88.5817 25 94C25 100.036 22.6511 112.441 26.179 117.566C28.4028 120.797 33.6239 119.999 37 120L64 120C67.1561 120 71.9116 120.821 74.6821 118.972C79.7051 115.62 77 99.4184 77 94C77 88.0029 79.3809 75.4261 75.9722 70.3179C73.8004 67.0632 68.3408 68.0002 65 68L38 68C34.8439 68 30.0884 67.179 27.3179 69.0278z"/>
<path style="fill:#ffffff; stroke:none;" d="M94 69L94 76L221 76L221 69L94 69M35 77L35 110L68 110L68 77L35 77z"/>
<path style="fill:#ff0000; stroke:none;" d="M89.1088 93.5725C83.0268 95.5366 82.4451 116.907 88.1481 119.397C96.2076 122.915 111.227 120 120 120L195 120C203.104 120 221.796 123.481 228.566 118.821C234.445 114.775 232.479 94.6182 224.995 93.2284C215.275 91.4232 203.884 93 194 93L132 93C119.308 93 101.194 89.6699 89.1088 93.5725z"/>
<path style="fill:#ffffff; stroke:none;" d="M94 103L94 110L221 110L221 103L94 103z"/>
<path style="fill:#ff0000; stroke:none;" d="M108.015 136.742C100.318 139.778 102 149.383 102 156L102 207C102 212.708 100.262 221.972 103.742 226.867C108.075 232.959 118.549 231 125 231L170 231C176.316 231 185.012 232.516 190.957 230.106C198.684 226.974 197 216.665 197 210L197 161C197 154.926 198.752 145.404 195.142 140.133C190.948 134.01 180.373 136 174 136L129 136C122.744 136 113.905 134.42 108.015 136.742M214 136.654C197.778 141.669 204.852 166.495 221 162.042C237.708 157.436 230.449 131.568 214 136.654M27.3179 146.028L25 156L25 183L25 215L26.179 228.566L39 231L71 231L83.5664 229.821L86 220L86 193L86 161L84.9722 147.318L72 145L40 145L27.3179 146.028z"/>
<path style="fill:#ffffff; stroke:none;" d="M111 146L111 221L187 221L187 146L111 146M215.757 147.046C212.934 149.331 216.598 153.915 219.382 151.343C222.061 148.868 218.555 144.783 215.757 147.046M35 154L35 170L51 170L51 154L35 154M60 154L60 170L76 170L76 154L60 154z"/>
<path style="fill:#ff0000; stroke:none;" d="M131.004 157.533C118.557 160.601 122.996 183.364 123 193C123.002 197.181 122.58 202.142 125.09 205.772C127.268 208.924 131.429 209.646 135 209.91C144.736 210.628 158.593 211.993 167.999 209.276C179.471 205.963 175 183.351 175 174C175 170.004 175.918 164.565 173.397 161.144C167.771 153.513 139.454 155.45 131.004 157.533z"/>
<path style="fill:#ffffff; stroke:none;" d="M133 167L133 200L166 200L166 167L133 167z"/>
<path style="fill:#ff0000; stroke:none;" d="M214 170.654C197.678 175.694 204.805 201.079 221 196.192C237.609 191.18 230.07 165.691 214 170.654z"/>
<path style="fill:#ffffff; stroke:none;" d="M35 180L35 196L51 196L51 180L35 180M60 180L60 196L76 196L76 180L60 180M216.318 181.086C213.016 183.109 216.335 187.859 219.397 185.763C222.271 183.796 219.406 179.193 216.318 181.086z"/>
<path style="fill:#ff0000; stroke:none;" d="M215 204.548C197.605 208.322 204.165 234.791 220.999 230.441C237.16 226.266 231.049 201.066 215 204.548z"/>
<path style="fill:#ffffff; stroke:none;" d="M35 205L35 221L51 221L51 205L35 205M60 205L60 221L76 221L76 205L60 205M216.318 215.175C212.892 216.922 216.427 222.024 219.382 219.914C221.97 218.067 219.104 213.755 216.318 215.175M0 249L0 256L7 256L7 255L0 249M255 249L249 255L249 256L256 256L255 249z"/>
</svg>
