<?xml version="1.0" standalone="yes"?>
<svg xmlns="http://www.w3.org/2000/svg" width="256" height="256">
<path style="fill:#ffffff; stroke:none;" d="M0 0L0 256L256 256L256 0L0 0z"/>
<path style="fill:#ff0000; stroke:none;" d="M29.0154 7.53317C22.4533 9.17915 22.029 15.2232 22.0008 21C21.9356 34.3326 22 47.6672 22 61L22 195L22 230C22 234.619 21.0334 240.844 23.858 244.852C26.7726 248.987 32.5905 248 37 248L72 248L178 248C192.651 248 212.909 251.665 226.956 247.566C232.949 245.818 232 238.934 232 234L232 194L232 59L232 25C232 20.582 233.163 14.0064 230.258 10.2785C227.212 6.36957 221.386 7.00169 217 7L182 7L78 7C62.8551 7 43.708 3.84782 29.0154 7.53317z"/>
<path style="fill:#ffffff; stroke:none;" d="M37 22L37 97L78 97C85.7334 97 93.5416 97.7368 99.9853 92.6065C116.53 79.4344 109 40.9969 109 22L37 22M124 22C124 49.0797 132.783 92.2203 104 107.676C85.9767 117.354 56.9878 112 37 112L37 233L217 233L217 22L124 22z"/>
<path style="fill:#ff0000; stroke:none;" d="M70 27.4684C61.3327 29.0651 54.6198 36.0476 54.108 45C53.8833 48.9314 56.1124 53.3165 54.2269 57C49.9557 65.3437 37.0757 80.2008 45.8935 90.5664C48.8616 94.0555 54.9364 93 59 93C70.6193 93 85.7428 95.5918 96.9846 92.6821C105.507 90.4761 103.221 78.2303 101.51 72C99.7752 65.6814 94.401 61.8343 92.3133 56C90.972 52.2516 93.1672 47.9188 92.6844 44C91.3318 33.0206 80.8762 25.4647 70 27.4684z"/>
<path style="fill:#ffffff; stroke:none;" d="M73.0401 43.1759C68.2562 43.7756 69.2155 51.2209 73.9846 50.1682C78.4164 49.19 77.6873 42.5934 73.0401 43.1759z"/>
<path style="fill:#ff0000; stroke:none;" d="M140.109 61.0278C134.284 64.3081 135.904 72.827 142.019 74.5664C155.05 78.2736 173.442 75 187 75C191.764 75 198.769 76.2459 202.852 73.2577C207.997 69.4922 205.871 61.819 199.995 60.3179C186.975 56.991 169.454 60 156 60C151.385 60 144.262 58.689 140.109 61.0278z"/>
<path style="fill:#ffffff; stroke:none;" d="M60 78L87 78C83.9184 62.7288 62.9527 62.7498 60 78z"/>
<path style="fill:#ff0000; stroke:none;" d="M142.019 85.6528C135.623 87.7381 134.195 96.7028 141.044 99.3966C152.997 104.098 174.135 100 187 100C191.572 100 198.71 101.305 202.772 98.821C209.716 94.5748 204.192 86.0509 197.999 85.189C186.097 83.5326 173.017 85 161 85C155.11 85 147.673 83.8089 142.019 85.6528M140.109 113.028C133.347 116.834 133.201 146.581 139.279 151.142C143.125 154.029 149.497 153 154 153L186 153C190.619 153 196.844 153.967 200.852 151.142C207.125 146.721 204.092 128.901 203.996 122C203.951 118.746 203.886 115.083 200.772 113.179C196.912 110.819 190.336 112 186 112L154 112C149.869 112 143.84 110.928 140.109 113.028z"/>
<path style="fill:#ffffff; stroke:none;" d="M151 127L151 138L189 138L189 127L151 127z"/>
<path style="fill:#ff0000; stroke:none;" d="M52.189 138.742C45.6149 141.657 47.9973 150.645 54.0154 152.427C67.848 156.524 87.5751 153 102 153C107.028 153 114.45 154.288 118.772 151.142C123.862 147.437 122.06 139.399 115.96 138.228C101.988 135.546 85.2373 138 71 138C65.5152 138 57.2839 136.483 52.189 138.742M55.0039 163.533C47.0184 165.502 45.7208 175.511 54.0154 178.196C67.1234 182.439 86.2514 179 100 179C105.556 179 112.812 180.156 117.891 177.427C126.252 172.936 120.099 164.085 113 163.185C96.7013 161.119 70.9405 159.605 55.0039 163.533M143.015 163.533C133.371 165.949 132.036 196.844 139.228 202.397C143.082 205.371 150.423 204 155 204C168.188 204 186.305 207.258 198.956 203.566C206.728 201.299 207.035 169.101 200.852 164.938C196.545 162.039 189.905 163 185 163C171.968 163 155.669 160.363 143.015 163.533z"/>
<path style="fill:#ffffff; stroke:none;" d="M151 179L151 189L189 189L189 179L151 179z"/>
<path style="fill:#ff0000; stroke:none;" d="M54.0154 189.573C48.0644 191.335 45.4817 200.408 52.1088 203.258C56.5623 205.173 63.2422 204 68 204L102 204C106.805 204 114.51 205.427 118.772 202.821C125.716 198.575 120.192 190.051 113.999 189.189C101.459 187.444 87.6628 189 75 189C68.4728 189 60.3179 187.706 54.0154 189.573z"/>
</svg>
