<?xml version="1.0" standalone="yes"?>
<svg xmlns="http://www.w3.org/2000/svg" width="256" height="256">
<path style="fill:#ffffff; stroke:none;" d="M0 0L0 256L256 256L256 0L0 0z"/>
<path style="fill:#ff0000; stroke:none;" d="M73 29L73 172L73 206C72.9997 210.631 73.7256 216.352 68.9414 218.972C63.673 221.858 53.8701 220 48 220C40.6867 220 23.2262 223.185 17.4336 218.258C12.9069 214.407 15 203.324 15 198L15 141C15 130.006 15.2022 118.991 14.9954 108C14.9389 105 13.0933 97.3938 8.60262 101.623C4.08658 105.876 7 123.097 7 129L7 198C7 206.216 4.60856 218.422 11.2137 224.656C15.5809 228.778 21.4618 228 27 228L62 228C68.213 228 74.1889 228.435 78.3472 222.906C84.8127 214.309 81 194.352 81 184L82 184C85.6387 195.499 93.3581 206.218 98.7531 217C101.128 221.747 103.246 227.788 108.093 230.558C121.248 238.073 145.595 219.478 157 213C161.913 210.21 167.798 207.877 169.602 201.999C171.917 194.456 167.737 188.339 164.309 182C158.665 171.565 152.56 160.952 148 150C161.952 158.541 175.974 166.979 190 175.4C195.985 178.993 202.677 184.916 210 184.914C215.655 184.911 219.826 181.452 222.907 176.996C230.192 166.459 236.438 155.001 242.999 144C246.498 138.133 249.828 131.821 246.427 125.04C240.649 113.518 216.848 104.509 206 98C202.941 96.1647 194.191 89.1443 191.238 94.3179C188.368 99.3455 197.887 103.332 201 105.2C210.911 111.147 232.271 119.237 238.292 129.184C242.131 135.527 226.973 153.41 223.601 159C220.796 163.651 217.18 173.506 211.896 175.688C206.688 177.839 197.277 169.566 193 167C179.63 158.977 166.193 150.991 153 142.681C146.758 138.75 140.156 136.021 137 129C141.449 131.366 146.635 135.663 151.999 134.387C160.794 132.297 176.902 105.893 174.562 97.0039C172.705 89.9446 162.685 86.2479 157 82.7971C150.52 78.8634 140.768 70.9436 133.326 77.4336C127.511 82.5049 123.989 91.4837 120 98C118.698 94.8621 116.459 91.5095 117.438 88C119.515 80.5501 129.314 73.5537 124.821 65.0432C117.776 51.6993 96.068 50.5679 88 37C112.991 48.6816 136.366 66.1427 160 80.3989C164.198 82.9312 179.841 95.58 184.392 91.3542C188.965 87.1077 180.833 82.708 178 81L144 60.3989C129.296 51.5297 114.725 42.435 100 33.6003C93.5338 29.7207 86.2676 23.5938 79 21.51C67.8993 18.3273 52.5398 21 41 21C33.3596 21 23.3456 19.2973 16.0008 21.5139C9.92377 23.3479 7.19134 29.0914 7.01543 35C6.59943 48.9735 7 63.0198 7 77C7 80.4392 5.07887 95.0555 11.8711 93.2484C16.7702 91.945 15 81.6994 15 78L15 47C15 42.822 13.9509 36.8508 16.0278 33.0586C18.9186 27.7804 25.9621 29 31 29L73 29z"/>
<path style="fill:#ffffff; stroke:none;" d="M81 42C81.0017 57.7547 96.0783 68.2847 96.6782 83C97.036 91.7766 87.0678 92.5731 82.6034 97.6373C80.4382 100.093 81.0023 103.97 81 107C87.5861 105.099 94.8385 97.7425 101.999 99.3333C108.874 100.861 112.431 110.383 115.247 116C117.943 121.378 124.681 129.712 123.473 135.999C122.559 140.755 117.806 143.223 114 145.421C104.403 150.962 92.1792 160.067 81 156C81.002 173.949 94.7742 191.299 102.756 207C105.067 211.545 108.46 221.384 113.213 223.728C117.074 225.632 121.766 222.235 125 220.424C133.506 215.66 142.311 211.176 151 206.756C154.578 204.936 159.964 203.163 161.353 198.957C162.665 194.986 159.446 190.386 157.753 187C152.881 177.255 147.774 167.491 142.424 158C127.641 131.773 114.633 104.486 100.309 78C94.0902 66.502 89.3322 52.056 81 42z"/>
<path style="fill:#ff0000; stroke:none;" d="M25.044 43.7423C16.1253 47.3767 19.9995 69.1428 20 77C20.0002 80.5132 19.3865 84.8485 21.6034 87.8557C26.9277 95.078 54.335 93.9439 61.9846 90.8519C71.9776 86.8125 68.0006 66.7596 68 58C67.9998 54.2339 68.6805 49.4344 66.2577 46.2284C63.7809 42.9509 59.7133 43.0203 56 43.0008C47.1733 42.9542 33.2635 40.3928 25.044 43.7423z"/>
<path style="fill:#ffffff; stroke:none;" d="M28 51L28 74C28.0012 76.6168 27.2505 81.1087 29.6034 82.9722C32.8503 85.5438 41.0708 84 45 84C48.4758 84 56.5316 85.4781 58.9722 82.3966C63.3583 76.8588 60 58.0093 60 51L28 51M99 58L111 81L118 69L99 58M81 69L81 89L89 85L81 69M139.329 84.1605C136.259 85.5499 134.444 90.2869 132.797 93C124.771 106.219 124.062 111.193 138 119.601C141.242 121.557 146.753 126.688 150.815 124.864C155.184 122.902 167.327 103.856 165.698 99.1852C164.238 95.0008 156.547 92.1281 153 90C149.793 88.0757 143.3 82.363 139.329 84.1605z"/>
<path style="fill:#ff0000; stroke:none;" d="M26.0401 100.653C15.9045 104 19.9995 125.602 20 134C20.0002 137.778 19.359 142.447 21.8935 145.606C27.0543 152.038 54.5586 150.792 61.9599 148.347C72.0955 145 68.0005 123.398 68 115C67.9998 111.222 68.6411 106.553 66.1065 103.394C60.9457 96.9619 33.4414 98.2084 26.0401 100.653M188.001 104.627C180.71 105.804 177.18 114.367 173.8 120C170.332 125.779 163.266 133.81 164.384 140.999C165.805 150.134 192.119 165.273 200.999 163.768C207.934 162.592 211.17 154.384 214.4 149C217.913 143.144 224.869 135.287 223.756 128C222.428 119.3 196.627 103.234 188.001 104.627z"/>
<path style="fill:#ffffff; stroke:none;" d="M87 150C92.4786 148.422 114.179 140.059 114.759 133.895C115.495 126.081 104.992 114.187 102 107C78.3537 111.215 76.258 131.596 87 150M28 108L28 141L60 141L60 108L28 108M189 112C184.761 117.556 172.71 131.744 173.252 138.896C173.611 143.622 195.503 156.664 199.815 154.839C206.217 152.128 214.515 134.476 216 128L189 112M136 128L137 129L136 128z"/>
<path style="fill:#ff0000; stroke:none;" d="M126 149.819C117.735 150.586 93.049 162.316 91.4344 171.015C89.7386 180.151 104.924 208.962 115 208.71C123.638 208.493 148.753 196.007 150.222 186.996C151.772 177.491 136.598 148.837 126 149.819z"/>
<path style="fill:#ffffff; stroke:none;" d="M147 149L148 150L147 149z"/>
<path style="fill:#ff0000; stroke:none;" d="M28 157.533C15.6669 160.537 20 180.293 20 190C20 194.01 19.1612 199.356 21.7423 202.772C24.2191 206.049 28.2867 205.98 32 205.999C41.1223 206.047 53.1909 208.05 61.9846 205.566C72.0868 202.714 68.0031 180.112 68 172C67.9986 168.469 68.5002 164.235 66.2577 161.225C60.7648 153.85 36.1174 155.556 28 157.533z"/>
<path style="fill:#ffffff; stroke:none;" d="M99 172L114 201L143 186C140.59 180.243 133.233 160.333 126.895 158.816C120.382 157.257 104.733 168.654 99 172M28 198L60 198C60 190.991 63.3583 172.141 58.9722 166.603C56.5316 163.522 48.4758 165 45 165C41.0708 165 32.8503 163.456 29.6034 166.028C27.2505 167.891 28.0012 172.383 28 175L28 198z"/>
</svg>
